<svg width="146" height="19" fill="none" xmlns="http://www.w3.org/2000/svg"><path d="M11.336 12.15H5.161L3.983 15H.829L6.757 1.7h3.04L15.744 15h-3.23l-1.178-2.85zm-.969-2.337L8.258 4.721 6.149 9.813h4.218zm11.379-3.686c.355-.494.83-.868 1.425-1.121.608-.253 1.305-.38 2.09-.38v2.736c-.33-.025-.551-.038-.665-.038-.849 0-1.514.24-1.995.722-.482.469-.722 1.178-.722 2.128V15h-2.964V4.778h2.83v1.349zm14.223 8.379c-.291.215-.653.38-1.083.494a5.631 5.631 0 0 1-1.33.152c-1.216 0-2.16-.31-2.831-.931-.659-.62-.988-1.533-.988-2.736V7.286H28.16v-2.28h1.577V2.517H32.7v2.489h2.546v2.28H32.7v4.161c0 .43.108.766.323 1.007.228.228.544.342.95.342.469 0 .868-.127 1.197-.38l.798 2.09zm3.664-9.728h2.964V15h-2.964V4.778zm1.482-1.425c-.545 0-.988-.158-1.33-.475a1.54 1.54 0 0 1-.513-1.178c0-.469.17-.861.513-1.178.342-.317.785-.475 1.33-.475.544 0 .988.152 1.33.456.342.304.513.684.513 1.14 0 .494-.171.906-.513 1.235-.342.317-.786.475-1.33.475zm9.671 11.799c-.848 0-1.678-.101-2.489-.304-.81-.215-1.456-.481-1.938-.798l.988-2.128c.456.291 1.008.532 1.654.722a7.16 7.16 0 0 0 1.9.266c1.253 0 1.88-.31 1.88-.931 0-.291-.17-.5-.512-.627-.343-.127-.868-.234-1.578-.323-.836-.127-1.526-.272-2.07-.437a3.28 3.28 0 0 1-1.425-.874c-.393-.418-.59-1.013-.59-1.786 0-.646.184-1.216.551-1.71.38-.507.925-.9 1.635-1.178.721-.279 1.57-.418 2.545-.418.722 0 1.438.082 2.147.247.722.152 1.318.367 1.786.646l-.988 2.109a5.898 5.898 0 0 0-2.944-.76c-.634 0-1.109.089-1.425.266-.317.177-.475.405-.475.684 0 .317.17.538.512.665.342.127.887.247 1.634.361.836.14 1.52.291 2.052.456a3.01 3.01 0 0 1 1.387.855c.393.418.59 1 .59 1.748a2.7 2.7 0 0 1-.57 1.691c-.38.494-.938.88-1.672 1.159-.723.266-1.584.399-2.585.399zm15.248-.646c-.291.215-.652.38-1.083.494a5.631 5.631 0 0 1-1.33.152c-1.216 0-2.16-.31-2.83-.931-.66-.62-.989-1.533-.989-2.736V7.286h-1.577v-2.28h1.577V2.517h2.964v2.489h2.546v2.28h-2.546v4.161c0 .43.108.766.323 1.007.228.228.545.342.95.342.469 0 .868-.127 1.197-.38l.798 2.09zM77.288.902h2.717v17.784h-2.717V.902zm15.244.798h3.078v10.792h6.669V15h-9.747V1.7zm18.048 13.452c-1.077 0-2.046-.222-2.907-.665a5.093 5.093 0 0 1-1.995-1.881c-.482-.798-.722-1.704-.722-2.717 0-1.013.24-1.919.722-2.717a4.96 4.96 0 0 1 1.995-1.862c.861-.456 1.83-.684 2.907-.684 1.076 0 2.039.228 2.888.684a4.972 4.972 0 0 1 1.995 1.862c.481.798.722 1.704.722 2.717 0 1.013-.241 1.919-.722 2.717a5.106 5.106 0 0 1-1.995 1.881c-.849.443-1.812.665-2.888.665zm0-2.432c.76 0 1.38-.253 1.862-.76.494-.52.741-1.21.741-2.071 0-.861-.247-1.545-.741-2.052-.482-.52-1.102-.779-1.862-.779s-1.387.26-1.881.779c-.494.507-.741 1.19-.741 2.052 0 .861.247 1.552.741 2.071.494.507 1.121.76 1.881.76zm20.131-7.942v8.512c0 1.875-.488 3.268-1.463 4.18-.975.912-2.4 1.368-4.275 1.368-.988 0-1.925-.12-2.812-.361-.887-.24-1.621-.589-2.204-1.045l1.178-2.128c.431.355.975.633 1.634.836a6.328 6.328 0 0 0 1.976.323c1.026 0 1.78-.234 2.261-.703.494-.456.741-1.153.741-2.09v-.437c-.773.849-1.849 1.273-3.23 1.273a5.55 5.55 0 0 1-2.584-.608 4.791 4.791 0 0 1-1.843-1.748c-.456-.747-.684-1.609-.684-2.584 0-.975.228-1.837.684-2.584a4.652 4.652 0 0 1 1.843-1.729 5.413 5.413 0 0 1 2.584-.627c1.482 0 2.609.488 3.382 1.463V4.778h2.812zm-5.605 7.296c.785 0 1.425-.228 1.919-.684.507-.469.76-1.077.76-1.824 0-.747-.253-1.349-.76-1.805-.494-.469-1.134-.703-1.919-.703-.785 0-1.431.234-1.938.703-.507.456-.76 1.058-.76 1.805 0 .747.253 1.355.76 1.824.507.456 1.153.684 1.938.684zm15.228 3.078c-1.077 0-2.046-.222-2.907-.665a5.093 5.093 0 0 1-1.995-1.881c-.482-.798-.722-1.704-.722-2.717 0-1.013.24-1.919.722-2.717a4.96 4.96 0 0 1 1.995-1.862c.861-.456 1.83-.684 2.907-.684 1.076 0 2.039.228 2.888.684a4.972 4.972 0 0 1 1.995 1.862c.481.798.722 1.704.722 2.717 0 1.013-.241 1.919-.722 2.717a5.106 5.106 0 0 1-1.995 1.881c-.849.443-1.812.665-2.888.665zm0-2.432c.76 0 1.38-.253 1.862-.76.494-.52.741-1.21.741-2.071 0-.861-.247-1.545-.741-2.052-.482-.52-1.102-.779-1.862-.779s-1.387.26-1.881.779c-.494.507-.741 1.19-.741 2.052 0 .861.247 1.552.741 2.071.494.507 1.121.76 1.881.76z" fill="#24252F"/></svg>