<svg role="img" viewBox="0 0 24 24" xmlns="http://www.w3.org/2000/svg"><path d="m21.2325621 4.63841899c.526819-.52681908.5246494-1.38313114-.0035241-1.9113046l.0438476.04384757c-.5287653-.52876531-1.3869798-.52784878-1.9113046-.00352402l-7.065629 7.06562899c-.1634497.16344977-.4265682.16533585-.591904 0l-7.06562901-7.06562899c-.52681908-.52681907-1.38313114-.52464944-1.9113046.00352402l.04384757-.04384757c-.52876531.52876532-.52784878 1.38697983-.00352402 1.9113046l7.06562899 7.06562901c.16344977.1634497.16533585.4265682 0 .591904l-7.06562899 7.065629c-.52681907.5268191-.52464944 1.3831311.00352402 1.9113046l-.04384757-.0438476c.52876532.5287654 1.38697983.5278488 1.9113046.0035241l7.06562901-7.065629c.1634497-.1634498.4265682-.1653359.591904 0l7.065629 7.065629c.5268191.526819 1.3831311.5246494 1.9113046-.0035241l-.0438476.0438476c.5287654-.5287653.5278488-1.3869798.0035241-1.9113046l-7.065629-7.065629c-.1634498-.1634497-.1653359-.4265682 0-.591904z" fill-rule="evenodd"/></svg>
