<svg role="img" viewBox="0 0 20 20" xmlns="http://www.w3.org/2000/svg"><path d="m18.0553691 9.08577774c0-4.92630404-4.02005-8.94635404-8.94635408-8.94635404-4.92630404 0-8.96959132 4.02005-8.96959132 8.94635404 0 4.92630406 4.02005 8.94635406 8.94635404 8.94635406 2.13783006 0 4.08976186-.7435931 5.64665986-1.9984064l3.8109144 3.8109145 1.3245252-1.3245252-3.8341518-3.7876771c1.2548133-1.5336607 2.0216437-3.5088298 2.0216437-5.64665986zm-8.96959136 7.11060866c-3.90386358 0-7.08737138-3.1835078-7.08737138-7.08737138s3.1835078-7.08737138 7.08737138-7.08737138c3.90386356 0 7.08737136 3.1835078 7.08737136 7.08737138s-3.1602705 7.08737138-7.08737136 7.08737138z"/></svg>
