<svg role="img" height="130" viewBox="0 0 554 130" width="554" xmlns="http://www.w3.org/2000/svg"><g fill="none" fill-rule="evenodd"><path d="m0 0h554v130h-554z" fill="#fff"/><path d="m0 0h554v130h-554z" fill="#fff"/><g fill="#555d66"><path d="m41 30h54v26h-54z"/><circle cx="466.880859" cy="97" r="6"/><circle cx="509" cy="97" r="6"/><circle cx="487.94043" cy="97" r="6"/><path d="m41 95h60v4h-60z"/><path d="m330 41h36v4h-36z"/><path d="m330 51h28v4h-28z"/><path d="m330 30h28v4h-28z"/><path d="m404 30h28v4h-28z"/><path d="m478 30h28v4h-28z"/><path d="m404 41h36v4h-36z"/><path d="m404 51h28v4h-28z"/><path d="m478 41h36v4h-36z"/><path d="m478 51h28v4h-28z"/></g></g></svg>