<?xml version="1.0" encoding="utf-8"?>
<!-- Generator: Adobe Illustrator 22.1.0, SVG Export Plug-In . SVG Version: 6.00 Build 0)  -->
<svg role="img" version="1.1" id="Layer_1" xmlns="http://www.w3.org/2000/svg" xmlns:xlink="http://www.w3.org/1999/xlink" x="0px" y="0px"
	 viewBox="0 0 19.1 19" style="enable-background:new 0 0 19.1 19;" xml:space="preserve">
<style type="text/css">
	.st0{fill:none;}
	.st1{fill:#202124;}
</style>
<polygon class="st0" points="1.2,17.8 16.8,17.8 16.8,9 12,9 12,2.2 1.2,2.2 "/>
<polygon class="st1" points="16.8,17.8 1.2,17.8 1.2,2.2 12,2.2 12,1 0,1 0,19 18,19 18,9 16.8,9 "/>
<g>
	<path class="st1" d="M9.5,15C8.9,15,4,9.2,4,8.8c0-0.4,0.9-1.7,1.1-1.7c0.3,0,3.9,4.4,4.4,4.4s7.8-11.3,8-11.5
		c0.1-0.1,1.1,0.1,1.3,0.3C19.2,0.7,19,1,19,1S10,15,9.5,15z"/>
</g>
</svg>
