<svg width="115" height="12" viewBox="0 0 115 12" fill="none" xmlns="http://www.w3.org/2000/svg">
<path d="M8.15544 0L0 7.09934V11.2933L8.16667 4.20373L16.3333 11.2933V7.09934L8.15544 0Z" fill="#FCAE6E"/>
<path d="M24.4888 0L16.3333 7.09934V11.2933L24.5 4.20373L32.6667 11.2933V7.09934L24.4888 0Z" fill="#FCAE6E"/>
<path d="M40.8221 0L32.6667 7.09934V11.2933L40.8333 4.20373L49 11.2933V7.09934L40.8221 0Z" fill="#FCAE6E"/>
<path d="M57.1554 0L49 7.09934V11.2933L57.1667 4.20373L65.3333 11.2933V7.09934L57.1554 0Z" fill="#FCAE6E"/>
<path d="M73.4888 0L65.3333 7.09934V11.2933L73.5 4.20373L81.6667 11.2933V7.09934L73.4888 0Z" fill="#FCAE6E"/>
<path d="M89.8221 0L81.6667 7.09934V11.2933L89.8333 4.20373L98 11.2933V7.09934L89.8221 0Z" fill="#FCAE6E"/>
<path d="M106.155 0L98 7.09934V11.2933L106.167 4.20373L114.333 11.2933V7.09934L106.155 0Z" fill="#FCAE6E"/>
</svg>
