<svg height="24" viewBox="0 0 24 24" width="24" xmlns="http://www.w3.org/2000/svg"><path d="m23.4519591 21.9382074-4.3609756-4.3609756c3.3365853-4.1560976 3.0146341-10.30243902-.7902439-14.07804878-1.9902439-1.9902439-4.6536586-3.10243902-7.492683-3.10243902-2.83902435 0-5.47317069 1.11219512-7.49268289 3.10243902-1.9902439 1.9902439-3.10243902 4.65365854-3.10243902 7.49268288 0 2.8390244 1.11219512 5.4731708 3.10243902 7.492683 1.99024391 1.9902439 4.65365854 3.102439 7.49268289 3.102439 2.4 0 4.7414635-.8195122 6.6146342-2.3121951l4.3609756 4.3609756c.2341463.2341463.5268293.3512195.8195122.3512195.3219512 0 .6146341-.1170732.8195122-.3512195.4682927-.497561.4682927-1.2292683.0292683-1.697561zm-4.3983006-11.1382074c0 2.195122-.8487805 4.2731707-2.4 5.8243902-1.5512195 1.5512196-3.6292683 2.4-5.8243902 2.4-2.19512196 0-4.27317074-.8487804-5.82439025-2.4-1.55121951-1.5512195-2.4-3.6292682-2.4-5.8243902 0-2.19512195.84878049-4.27317073 2.4-5.82439024 1.55121951-1.55121952 3.62926829-2.4 5.82439025-2.4 2.1951219 0 4.2731707.84878048 5.8243902 2.4 1.5512195 1.55121951 2.4 3.62926829 2.4 5.82439024z"/></svg>
