<svg fill="none" height="218" width="476" xmlns="http://www.w3.org/2000/svg"><path d="M0 0h476v218H0z" fill="#fff"/><g fill="#111"><rect height="12" opacity=".5" rx="6" width="12" x="362" y="119"/><rect height="12" opacity=".5" rx="6" width="12" x="387" y="119"/><rect height="12" opacity=".5" rx="6" width="12" x="412" y="119"/><path d="M145 68h34.902v5H145zm72.131 0h34.902v5h-34.902zm70.967 0H323v5h-34.902z"/><path d="M145 82h34.902v2H145zm72.131 0h34.902v2h-34.902zm70.967 0H323v2h-34.902zM145 93h34.902v2H145zm72.131 0h34.902v2h-34.902zm70.967 0H323v2h-34.902zM145 104h34.902v2H145zm72.131 0h34.902v2h-34.902zm70.967 0H323v2h-34.902z" opacity=".4"/><path d="M51 68h34.902v5H51z"/><path d="M321 146h103v4H321z" opacity=".3"/></g></svg>